# xmcd
#
# Track frame offsets:
#	150
#	15454
#	28077
#	44375
#	60827
#	72836
#	90460
#	112467
#	126809
#	139705
#	151232
#	169326
#
# Disc length: 2418 seconds
#
# Revision: 1
# Processed by: cddbd v1.5.2PL0 Copyright (c) Steve Scherf et al.
# Submitted via: audiograbber 1.83.01
#
DISCID=9c09700c
DTITLE=Gene Taylor - Let me ride in your automobile
DYEAR=2010
DGENRE=Blues
TTITLE0=Evangeline Stomp
TTITLE1=Rockin' little honey
TTITLE2=Just a midnight girl 
TTITLE3=The golden rule
TTITLE4=Seven nights to rock
TTITLE5=Never took the time
TTITLE6=The blues to me
TTITLE7=The walkout
TTITLE8=Shirley Jean
TTITLE9=Motorhead baby
TTITLE10=Let me ride in your automobile
TTITLE11=Flying with Whitey
EXTD=
EXTT0=
EXTT1=
EXTT2=
EXTT3=
EXTT4=
EXTT5=
EXTT6=
EXTT7=
EXTT8=
EXTT9=
EXTT10=
EXTT11=
PLAYORDER=
